<?xml version="1.0" standalone="no"?>
<!DOCTYPE svg PUBLIC "-//W3C//DTD SVG 20010904//EN"
 "http://www.w3.org/TR/2001/REC-SVG-20010904/DTD/svg10.dtd">
<svg version="1.0" xmlns="http://www.w3.org/2000/svg" viewBox="0 0 3379.000000 1499.000000"
 preserveAspectRatio="xMidYMid meet">

<g transform="translate(0.000000,1499.000000) scale(0.100000,-0.100000)" stroke="none">
<path fill="currentColor" style="fill:#953d96;" d="M11235 14599 c-873 -18 -1632 -54 -2360 -110 -226 -18 -274 -24 -297
-40 -91 -65 -105 -297 -23 -405 23 -30 24 -31 207 -53 563 -69 679 -91 806
-155 38 -19 95 -59 127 -88 189 -172 258 -450 285 -1143 16 -400 8 -8380 -8
-8555 -35 -375 -72 -556 -148 -710 -39 -78 -62 -110 -128 -175 -167 -167 -338
-220 -942 -295 -302 -37 -330 -43 -346 -63 -48 -63 -58 -252 -19 -344 13 -28
32 -59 42 -69 21 -19 -46 -20 959 17 146 5 612 12 1035 15 789 7 1239 0 2089
-33 l449 -17 23 30 c72 90 84 327 21 399 -20 23 -42 28 -302 65 -441 64 -583
98 -745 178 -75 37 -111 62 -171 122 -143 141 -211 319 -253 656 -37 299 -40
479 -41 2179 0 1869 -5 1736 74 1808 78 70 175 86 581 94 532 10 788 -27 1035
-146 201 -98 332 -227 537 -527 187 -275 365 -549 863 -1334 548 -863 638
-1001 927 -1422 131 -190 388 -575 571 -855 577 -880 779 -1177 1020 -1498
836 -1113 1565 -1658 2382 -1780 127 -19 544 -34 943 -35 l272 0 0 218 0 219
-132 12 c-371 33 -669 160 -973 413 -144 119 -449 403 -585 544 -341 353 -737
892 -1212 1649 -339 541 -640 1056 -1448 2480 -544 958 -882 1536 -1240 2120
-127 207 -164 329 -126 414 16 35 27 42 129 86 338 147 691 359 982 592 136
108 380 346 487 473 420 499 650 1042 709 1673 17 185 6 601 -20 779 -76 514
-249 933 -539 1308 -150 194 -412 436 -627 580 -689 461 -1494 676 -2725 730
-262 11 -1589 11 -2145 -1z m1895 -573 c753 -95 1316 -358 1758 -821 403 -422
649 -974 728 -1630 20 -167 23 -556 5 -745 -43 -461 -130 -798 -291 -1126
-171 -347 -433 -647 -740 -847 -339 -220 -755 -342 -1330 -388 -178 -15 -972
-14 -1230 1 -219 13 -382 35 -429 58 -47 23 -71 59 -90 134 -13 56 -15 342
-18 2463 -3 1590 -1 2432 6 2495 15 140 33 190 90 252 101 111 250 149 661
172 166 9 760 -3 880 -18z" />
<path fill="currentColor" style="fill:#000000;" d="M21465 10529 c-1663 -42 -3010 -502 -4023 -1374 -534 -460 -946
-1010 -1237 -1655 -44 -96 -55 -130 -48 -147 4 -13 238 -380 518 -818 355
-552 515 -795 528 -795 15 0 17 13 17 128 0 157 16 413 36 592 98 867 405
1649 881 2245 110 138 357 391 486 498 537 445 1185 725 1940 837 283 42 450
53 797 53 348 0 522 -11 793 -53 1024 -157 1711 -676 2076 -1569 53 -128 135
-371 146 -435 13 -68 88 -101 216 -94 87 5 164 37 181 74 9 19 2 89 -30 317
-103 718 -159 1256 -178 1683 l-7 161 -131 6 c-169 7 -248 21 -941 166 -479
100 -1005 166 -1415 176 -107 3 -224 7 -260 8 -36 2 -191 0 -345 -4z"/>
<path fill="currentColor" style="fill:#000000;" d="M21794 4489 c-31 -35 -44 -83 -44 -163 0 -73 21 -138 52 -163 9 -8
159 -29 369 -53 597 -68 731 -89 873 -141 234 -85 331 -236 377 -584 17 -133
25 -1459 9 -1635 -20 -234 -66 -425 -125 -526 -119 -203 -455 -352 -950 -423
-222 -32 -382 -41 -818 -48 l-407 -6 2 -216 3 -216 230 -9 c774 -29 1831 108
2861 369 318 81 511 121 655 136 66 7 121 18 131 26 22 20 31 77 18 118 -8 26
-22 39 -57 56 -114 55 -209 195 -258 381 -57 217 -60 271 -60 1143 0 839 3
911 46 1095 28 122 86 235 155 304 107 107 242 160 479 190 223 28 204 21 231
80 43 92 27 248 -30 295 -14 12 -52 12 -244 3 -550 -28 -963 -34 -1822 -28
-793 5 -1122 12 -1520 32 -133 6 -135 6 -156 -17z m3116 -452 c0 -2 -12 -14
-27 -28 l-28 -24 24 28 c23 25 31 32 31 24z m-60 -50 c0 -2 -12 -14 -27 -28
l-28 -24 24 28 c23 25 31 32 31 24z m-1570 -112 c30 -30 52 -55 49 -55 -2 0
-29 25 -59 55 -30 30 -52 55 -49 55 2 0 29 -25 59 -55z m1520 52 c0 -2 -10
-12 -22 -23 l-23 -19 19 23 c18 21 26 27 26 19z m-1470 -2750 c0 -2 -10 -12
-22 -23 l-23 -19 19 23 c18 21 26 27 26 19z m1461 -54 c13 -16 12 -17 -3 -4
-17 13 -22 21 -14 21 2 0 10 -8 17 -17z m-1501 4 c0 -2 -15 -16 -32 -33 l-33
-29 29 33 c28 30 36 37 36 29z m1555 -67 c21 -22 37 -40 34 -40 -3 0 -23 18
-44 40 -21 22 -37 40 -34 40 3 0 23 -18 44 -40z m-1625 7 c0 -2 -10 -12 -22
-23 l-23 -19 19 23 c18 21 26 27 26 19z m-50 -41 c0 -2 -8 -10 -17 -17 -16
-13 -17 -12 -4 4 13 16 21 21 21 13z m1741 -23 c13 -16 12 -17 -3 -4 -17 13
-22 21 -14 21 2 0 10 -8 17 -17z"/>
</g>
</svg>
